{
  "accessors": [
    {
      "bufferView": 2,
      "componentType": 5126,
      "count": 53537,
      "max": [
        39422.6640625,
        162180.734375,
        45158.30859375
      ],
      "min": [
        -39422.6640625,
        -430.33905029296875,
        -6144.2470703125
      ],
      "type": "VEC3"
    },
    {
      "bufferView": 2,
      "byteOffset": 642444,
      "componentType": 5126,
      "count": 53537,
      "max": [
        0.9999940991401672,
        1.0,
        0.9999749064445496
      ],
      "min": [
        -0.9999940991401672,
        -0.9999918937683105,
        -0.9999544620513916
      ],
      "type": "VEC3"
    },
    {
      "bufferView": 1,
      "componentType": 5126,
      "count": 53537,
      "max": [
        0.9932844638824463,
        0.9950182437896729
      ],
      "min": [
        0.00988100841641426,
        0.005468390882015228
      ],
      "type": "VEC2"
    },
    {
      "bufferView": 1,
      "byteOffset": 428296,
      "componentType": 5126,
      "count": 53537,
      "max": [
        0.9932844638824463,
        0.9950182437896729
      ],
      "min": [
        0.00988100841641426,
        0.005468390882015228
      ],
      "type": "VEC2"
    },
    {
      "bufferView": 0,
      "componentType": 5125,
      "count": 253839,
      "type": "SCALAR"
    }
  ],
  "asset": {
    "extras": {
      "author": "3D-BRO (https://sketchfab.com/gamestudio657)",
      "license": "CC-BY-4.0 (http://creativecommons.org/licenses/by/4.0/)",
      "source": "https://sketchfab.com/3d-models/demogorgon2-0feb17b5c09c409ca593cdeaf06712c7",
      "title": "Demogorgon2"
    },
    "generator": "Sketchfab-16.95.0",
    "version": "2.0"
  },
  "bufferViews": [
    {
      "buffer": 0,
      "byteLength": 1015356,
      "name": "floatBufferViews",
      "target": 34963
    },
    {
      "buffer": 0,
      "byteLength": 856592,
      "byteOffset": 1015356,
      "byteStride": 8,
      "name": "floatBufferViews",
      "target": 34962
    },
    {
      "buffer": 0,
      "byteLength": 1284888,
      "byteOffset": 1871948,
      "byteStride": 12,
      "name": "floatBufferViews",
      "target": 34962
    }
  ],
  "buffers": [
    {
      "byteLength": 3156836,
      "uri": "scene.bin"
    }
  ],
  "extensionsUsed": [
    "KHR_materials_specular"
  ],
  "images": [
    {
      "uri": "textures/Texture.001_baseColor.png"
    },
    {
      "uri": "textures/Texture.001_metallicRoughness.png"
    }
  ],
  "materials": [
    {
      "doubleSided": true,
      "extensions": {
        "KHR_materials_specular": {
          "specularColorFactor": [
            1.0,
            1.0,
            1.0
          ],
          "specularFactor": 0.4740393280317967
        }
      },
      "name": "Texture.001",
      "pbrMetallicRoughness": {
        "baseColorTexture": {
          "index": 0
        },
        "metallicFactor": 0.0,
        "metallicRoughnessTexture": {
          "index": 1,
          "texCoord": 1
        },
        "roughnessFactor": 0.0
      }
    }
  ],
  "meshes": [
    {
      "name": "Retopo.002_Texture.001_0",
      "primitives": [
        {
          "attributes": {
            "NORMAL": 1,
            "POSITION": 0,
            "TEXCOORD_0": 2,
            "TEXCOORD_1": 3
          },
          "indices": 4,
          "material": 0,
          "mode": 4
        }
      ]
    }
  ],
  "nodes": [
    {
      "children": [
        1
      ],
      "matrix": [
        1.0,
        0.0,
        0.0,
        0.0,
        0.0,
        2.220446049250313e-16,
        -1.0,
        0.0,
        0.0,
        1.0,
        2.220446049250313e-16,
        0.0,
        0.0,
        0.0,
        0.0,
        1.0
      ],
      "name": "Sketchfab_model"
    },
    {
      "children": [
        2
      ],
      "matrix": [
        0.009999999776482582,
        0.0,
        0.0,
        0.0,
        0.0,
        0.0,
        0.009999999776482582,
        0.0,
        0.0,
        -0.009999999776482582,
        0.0,
        0.0,
        0.0,
        0.0,
        0.0,
        1.0
      ],
      "name": "07b5bb0499d34fa6b17f5bff667182f9.fbx"
    },
    {
      "children": [
        3
      ],
      "name": "RootNode"
    },
    {
      "children": [
        4
      ],
      "matrix": [
        0.001252046786248684,
        0.0,
        0.0,
        0.0,
        0.0,
        0.001252046786248684,
        0.0,
        0.0,
        0.0,
        0.0,
        0.001252046786248684,
        0.0,
        0.0,
        0.0,
        0.0,
        1.0
      ],
      "name": "Retopo.002"
    },
    {
      "mesh": 0,
      "name": "Retopo.002_Texture.001_0"
    }
  ],
  "samplers": [
    {
      "magFilter": 9729,
      "minFilter": 9987,
      "wrapS": 10497,
      "wrapT": 10497
    }
  ],
  "scene": 0,
  "scenes": [
    {
      "name": "Sketchfab_Scene",
      "nodes": [
        0
      ]
    }
  ],
  "textures": [
    {
      "sampler": 0,
      "source": 0
    },
    {
      "sampler": 0,
      "source": 1
    }
  ]
}
